<svg width="61" height="61" viewBox="0 0 61 61" fill="none" xmlns="http://www.w3.org/2000/svg">
<path d="M19.3151 37.0862V24.1808H20.0157V26.211C20.0984 26.1211 20.1749 26.0255 20.2444 25.9251C20.5307 25.3308 20.9804 24.8305 21.5409 24.4828C22.1013 24.135 22.7493 23.9543 23.4088 23.9616C25.0053 23.914 26.3015 24.5049 27.064 25.9251C27.5492 26.8073 27.8162 27.7928 27.8427 28.7993C27.8693 29.8058 27.6546 30.804 27.2165 31.7105C26.5065 33.3023 24.7527 34.0933 22.8751 33.8026C22.2907 33.7529 21.7282 33.5576 21.2387 33.2346C20.7493 32.9116 20.3485 32.4712 20.0729 31.9536V37.0862H19.3151ZM20.0157 28.7463C20.0776 29.3754 20.1015 29.8233 20.1729 30.2618C20.4494 31.9869 21.4692 33.0115 23.0704 33.1974C23.8223 33.321 24.5938 33.18 25.2533 32.7985C25.9129 32.4171 26.4198 31.8186 26.6876 31.1053C26.9953 30.3716 27.1434 29.5808 27.122 28.7854C27.1006 27.99 26.9103 27.2083 26.5637 26.4922C26.2778 25.8528 25.7917 25.3238 25.1787 24.9851C24.5657 24.6464 23.8592 24.5163 23.1658 24.6145C22.5147 24.6617 21.8946 24.9105 21.3915 25.3265C20.8884 25.7424 20.5275 26.3048 20.3588 26.9354C20.2096 27.5319 20.095 28.1365 20.0157 28.7463ZM42.133 30.5001C42.0268 31.4087 41.5943 32.2478 40.9158 32.8615C40.2373 33.4751 39.359 33.8214 38.4444 33.836C35.5087 33.9837 34.1315 32.0346 33.9122 29.7852C33.7601 28.5637 33.9584 27.3241 34.4841 26.211C34.8502 25.4475 35.4498 24.8203 36.196 24.4202C36.9423 24.0201 37.7965 23.8678 38.635 23.9855C39.4322 24.053 40.1879 24.3697 40.7952 24.8905C41.4024 25.4114 41.8304 26.1101 42.0186 26.8877C42.1677 27.5959 42.2775 28.3119 42.3474 29.0322H34.6319C34.4889 31.0719 35.585 32.7113 37.1386 33.1069C39.0734 33.5834 40.7271 32.7447 41.3276 30.9051C41.461 30.4333 41.704 30.3666 42.133 30.5001ZM34.6319 28.3794H41.5277C41.4848 26.2062 40.1314 24.6336 38.2966 24.6098C36.2188 24.5764 34.7224 26.0919 34.6319 28.3794ZM43.5531 30.5477H44.2298C44.2548 31.0457 44.4166 31.5271 44.6974 31.939C44.9782 32.351 45.3672 32.6776 45.8215 32.8829C46.3921 33.1396 47.0132 33.2644 47.6386 33.2479C48.264 33.2314 48.8777 33.074 49.4339 32.7876C49.737 32.6509 49.9909 32.4246 50.1613 32.1391C50.3318 31.8536 50.4105 31.5227 50.387 31.1911C50.4044 30.8712 50.3171 30.5544 50.1382 30.2886C49.9593 30.0229 49.6987 29.8227 49.3958 29.7185C48.6523 29.4421 47.8612 29.2896 47.1035 29.0465C46.3151 28.822 45.5442 28.5401 44.7969 28.203C43.5769 27.6073 43.5007 25.2865 44.8827 24.5526C45.5904 24.1532 46.3868 23.9375 47.1992 23.925C48.0117 23.9125 48.8144 24.1037 49.534 24.4811C49.9699 24.722 50.322 25.0901 50.5434 25.5362C50.7648 25.9824 50.8449 26.4854 50.773 26.9783H50.1916C50.1916 26.9497 50.1392 26.9258 50.1392 26.8972C50.0677 25.0434 48.5141 24.4715 46.8462 24.6336C46.3482 24.695 45.8646 24.8417 45.4165 25.0672C45.1472 25.1904 44.9229 25.394 44.7743 25.6501C44.6258 25.9062 44.5604 26.2021 44.5872 26.4969C44.5881 26.7919 44.6801 27.0794 44.8508 27.32C45.0214 27.5606 45.2623 27.7425 45.5404 27.8408C46.2743 28.1077 47.0415 28.2793 47.7945 28.489C48.3997 28.6558 49.0288 28.7654 49.615 28.9655C50.0287 29.1012 50.3915 29.3592 50.6553 29.7056C50.9191 30.0519 51.0715 30.4703 51.0923 30.9051C51.1631 31.3816 51.0819 31.8683 50.8603 32.296C50.6387 32.7238 50.288 33.0708 49.858 33.288C48.2663 34.1887 45.6452 33.9504 44.4776 32.8114C44.1817 32.5138 43.9477 32.1605 43.789 31.772C43.6303 31.3835 43.5501 30.9674 43.5531 30.5477ZM59.6705 26.9783H59.0366C59.0366 26.8925 59.0033 26.8162 58.9937 26.7447C58.9835 26.2696 58.8102 25.8125 58.5031 25.4499C58.196 25.0872 57.7736 24.8411 57.3067 24.7527C56.4257 24.4999 55.4859 24.5452 54.6332 24.8814C54.2962 24.978 53.9994 25.1811 53.7873 25.4602C53.5751 25.7394 53.4589 26.0796 53.4561 26.4302C53.4442 26.7745 53.5516 27.1124 53.7599 27.3868C53.9683 27.6611 54.265 27.8552 54.5998 27.9362C55.553 28.2316 56.5299 28.4127 57.4973 28.6796C57.8108 28.7548 58.1195 28.8487 58.4219 28.9608C58.8733 29.1223 59.2655 29.4162 59.5472 29.8041C59.8289 30.1921 59.9871 30.656 60.001 31.1352C60.0149 31.6145 59.8839 32.0868 59.6251 32.4904C59.3663 32.894 58.9918 33.2102 58.5505 33.3976C57.878 33.703 57.1491 33.8645 56.4105 33.8719C55.6719 33.8793 54.94 33.7323 54.2615 33.4405C53.7035 33.1998 53.2327 32.794 52.9123 32.2777C52.5919 31.7614 52.4374 31.1593 52.4696 30.5525H52.7365H53.0891C53.2037 31.1054 53.4514 31.6221 53.8107 32.0578C54.17 32.4934 54.63 32.835 55.1511 33.0527C55.6721 33.2705 56.2383 33.358 56.8008 33.3077C57.3632 33.2573 57.9049 33.0706 58.379 32.7637C58.6677 32.6137 58.9074 32.384 59.0696 32.1019C59.2318 31.8198 59.3096 31.4971 59.294 31.172C59.3083 30.852 59.2179 30.536 59.0365 30.2719C58.855 30.0079 58.5924 29.8103 58.2884 29.709C57.545 29.4326 56.7539 29.2848 55.9962 29.0418C55.2032 28.8207 54.4275 28.542 53.6753 28.2078C52.4839 27.6216 52.3886 25.3198 53.7468 24.5859C54.4632 24.1698 55.2752 23.9463 56.1036 23.9372C56.9321 23.928 57.7488 24.1334 58.4743 24.5335C58.8892 24.7812 59.2232 25.1441 59.4355 25.5782C59.6479 26.0122 59.7295 26.4987 59.6705 26.9783ZM18.1571 33.6025C17.9076 33.697 17.6321 33.6968 17.3827 33.6019C17.1333 33.5071 16.9273 33.3242 16.8037 33.0878C16.0269 31.925 15.169 30.8146 14.3446 29.6804L13.9872 29.2038C13.0054 30.5191 12.0237 31.782 11.1278 33.0926C11.0111 33.3185 10.8162 33.4943 10.5795 33.5872C10.3428 33.6802 10.0803 33.6839 9.84107 33.5977L13.5249 28.6558L10.0984 24.1904C10.3451 24.1013 10.6149 24.1001 10.8623 24.1869C11.1098 24.2737 11.3197 24.4433 11.4566 24.6669C12.2525 25.8297 13.1341 26.9401 14.011 28.1173C14.8926 26.9497 15.7647 25.8345 16.5797 24.6812C16.697 24.459 16.892 24.2876 17.1275 24.1997C17.363 24.1119 17.6226 24.1136 17.8569 24.2047L16.5272 25.968C15.9315 26.7543 15.3454 27.5454 14.7258 28.3126C14.6759 28.3573 14.636 28.4121 14.6086 28.4732C14.5813 28.5344 14.5672 28.6007 14.5672 28.6677C14.5672 28.7347 14.5813 28.8009 14.6086 28.8621C14.636 28.9233 14.6759 28.978 14.7258 29.0227C15.8648 30.5334 16.9943 32.0489 18.1571 33.6025ZM33.7979 24.1427V24.8099C33.3159 24.7783 32.8326 24.8481 32.3792 25.0148C31.9259 25.1815 31.5125 25.4415 31.1659 25.7778C30.8192 26.1142 30.5469 26.5195 30.3665 26.9676C30.1862 27.4157 30.1018 27.8966 30.1188 28.3794C30.1188 29.9488 30.1188 31.5183 30.1188 33.0878C30.1188 33.2546 30.1188 33.4214 30.1188 33.6215H29.4373V24.1808H30.1045V26.1157C30.929 24.7051 32.2014 24.1808 33.7979 24.1427ZM1.01514 28.5938C1.11521 28.1173 1.17717 27.5978 1.31537 27.1117C2.13982 24.1808 5.49959 22.9608 7.81092 24.7765C9.16436 25.8393 9.50271 27.3452 9.436 29.0418H1.811C1.68709 32.0727 3.87451 33.9027 6.67193 32.9687C7.12572 32.8063 7.53193 32.5336 7.85392 32.175C8.17591 31.8164 8.40353 31.3832 8.51623 30.9147C8.66397 30.4381 8.90225 30.3571 9.35498 30.4953C9.28041 31.0755 9.07527 31.6312 8.75501 32.1207C8.43474 32.6101 8.00768 33.0206 7.50592 33.3213C6.67689 33.7747 5.72574 33.9543 4.78848 33.8344C3.85123 33.7146 2.97586 33.3015 2.28756 32.6541C1.60663 31.8885 1.1949 30.9211 1.11521 29.8996C1.11521 29.7376 1.05326 29.5755 1.0199 29.423C1.01673 29.1403 1.01514 28.8639 1.01514 28.5938ZM1.82053 28.3889H8.71639C8.6735 26.1919 7.2867 24.6336 5.43764 24.6193C3.37889 24.5907 1.90631 26.1157 1.81576 28.3794L1.82053 28.3889Z" fill="white"/>
</svg>
