<svg width="61" height="61" viewBox="0 0 61 61" fill="none" xmlns="http://www.w3.org/2000/svg">
<path d="M18.3 42.7C18.3 41.0821 18.9427 39.5306 20.0866 38.3866C21.2306 37.2426 22.7822 36.6 24.4 36.6H30.5V42.7C30.5 44.3178 29.8573 45.8693 28.7133 47.0133C27.5694 48.1573 26.0178 48.8 24.4 48.8C22.7822 48.8 21.2306 48.1573 20.0866 47.0133C18.9427 45.8693 18.3 44.3178 18.3 42.7ZM24.4 36.6H30.5V24.4H24.4C22.7822 24.4 21.2306 25.0426 20.0866 26.1866C18.9427 27.3306 18.3 28.8821 18.3 30.5C18.3 32.1178 18.9427 33.6693 20.0866 34.8133C21.2306 35.9573 22.7822 36.6 24.4 36.6ZM24.4 24.4H30.5V12.2H24.4C22.7822 12.2 21.2306 12.8426 20.0866 13.9866C18.9427 15.1306 18.3 16.6821 18.3 18.3C18.3 19.9178 18.9427 21.4693 20.0866 22.6133C21.2306 23.7573 22.7822 24.4 24.4 24.4ZM30.5 24.4H36.6C38.2178 24.4 39.7694 23.7573 40.9133 22.6133C42.0573 21.4693 42.7 19.9178 42.7 18.3C42.7 16.6821 42.0573 15.1306 40.9133 13.9866C39.7694 12.8426 38.2178 12.2 36.6 12.2H30.5V24.4ZM36.6 24.4C35.3935 24.4 34.2141 24.7577 33.211 25.428C32.2079 26.0983 31.426 27.051 30.9643 28.1656C30.5026 29.2802 30.3818 30.5067 30.6172 31.69C30.8526 32.8733 31.4335 33.9602 32.2866 34.8133C33.1397 35.6664 34.2267 36.2474 35.4099 36.4827C36.5932 36.7181 37.8197 36.5973 38.9344 36.1356C40.049 35.6739 41.0017 34.8921 41.672 33.8889C42.3422 32.8858 42.7 31.7064 42.7 30.5C42.7 28.8821 42.0573 27.3306 40.9133 26.1866C39.7694 25.0426 38.2178 24.4 36.6 24.4Z" fill="white"/>
</svg>
