<svg width="61" height="61" viewBox="0 0 61 61" fill="none" xmlns="http://www.w3.org/2000/svg">
<g clip-path="url(#clip0_44_2)">
<path d="M30.9039 60.9997C30.901 60.9997 30.898 60.9997 30.8951 60.9997C29.9104 60.9997 28.9896 60.7685 28.1995 60.3618L28.2257 60.3745L19.6944 55.9596C18.4221 55.3344 19.0437 55.1158 19.462 54.9862C20.9318 54.582 22.2099 54.0585 23.3892 53.4154L23.3195 53.451C23.4009 53.418 23.4938 53.4002 23.5926 53.4002C23.7262 53.4002 23.8511 53.4357 23.9557 53.4967L23.9528 53.4942L30.5059 56.8975C30.6192 56.9509 30.7557 56.9839 30.901 56.9839C31.0462 56.9839 31.1827 56.9509 31.3018 56.895L31.296 56.8975L56.8405 43.9935C57.0758 43.8664 57.2297 43.6427 57.2297 43.3885C57.2297 43.386 57.2297 43.386 57.2297 43.3835V17.5932C57.2268 17.3365 57.07 17.1102 56.8347 16.9857L56.8318 16.9832L31.296 4.09183C31.1827 4.03591 31.0462 4.00287 30.9039 4.00287C30.7615 4.00287 30.625 4.03591 30.5059 4.09437L30.5088 4.09183L4.97886 16.9857C4.73776 17.1102 4.578 17.3365 4.5751 17.5957V43.3911C4.5751 43.6478 4.73486 43.8689 4.97305 43.9858L4.97595 43.9884L11.9764 47.5264C15.773 49.1886 18.0968 47.2315 18.0968 45.2668V19.7942C18.0968 19.4384 18.4279 19.1487 18.8346 19.1487H18.8433H22.0821C22.4888 19.1487 22.8228 19.4359 22.8228 19.7942V45.2668C22.8228 49.702 20.0633 52.2462 15.2588 52.2462C15.2007 52.2462 15.1339 52.2488 15.0671 52.2488C12.9611 52.2488 10.9946 51.7277 9.32729 50.8255L2.67538 47.4755C1.06034 46.6419 -0.00280762 45.1296 -0.00280762 43.3962V17.5957C9.71447e-05 15.8674 1.06614 14.3602 2.65214 13.5417L2.67829 13.529L28.2257 0.612285C29.0012 0.233576 29.925 0.0124512 30.9097 0.0124512C31.8944 0.0124512 32.821 0.236118 33.6227 0.624993L33.5937 0.612285L59.1381 13.529C60.7503 14.3602 61.8134 15.8674 61.8192 17.5957V43.3936C61.8163 45.1245 60.7503 46.6368 59.1614 47.4603L59.1352 47.473L33.5966 60.3796C32.8297 60.7735 31.906 61.0048 30.9184 61.0048C30.9126 61.0048 30.9039 61.0048 30.898 61.0048L30.9039 60.9997Z" fill="white"/>
<path d="M38.796 43.2312C27.6185 43.2312 25.2744 38.7426 25.2744 34.9733V34.9708C25.2744 34.6149 25.6026 34.3277 26.0093 34.3277H26.0151H29.3178C29.6867 34.3277 29.9946 34.5641 30.0527 34.8716C30.5494 37.8149 32.0366 39.3018 38.796 39.3018C44.1785 39.3018 46.4646 38.2368 46.4646 35.7384C46.4646 34.2972 45.8168 33.2297 37.454 32.513C30.4652 31.903 26.1429 30.5559 26.1429 25.6632C26.1429 21.1543 30.4884 18.4626 37.7619 18.4626C45.9475 18.4626 49.9968 20.9484 50.508 26.2808C50.5109 26.2986 50.5109 26.3189 50.5109 26.3367C50.5109 26.6951 50.1798 26.9823 49.7731 26.9823H46.482C46.1334 26.9823 45.8401 26.7663 45.7674 26.4791V26.474C44.9715 23.3782 43.037 22.3895 37.791 22.3895C31.9146 22.3895 31.232 24.1814 31.232 25.5209C31.232 27.1475 32.0395 27.6203 39.9724 28.5378C47.8211 29.4477 51.5508 30.7313 51.5508 35.5579C51.5392 40.4354 46.9003 43.2261 38.8047 43.2261L38.796 43.2312Z" fill="white"/>
</g>
<defs>
<clipPath id="clip0_44_2">
<rect width="61" height="61" fill="white"/>
</clipPath>
</defs>
</svg>
