<svg width="61" height="61" viewBox="0 0 61 61" fill="none" xmlns="http://www.w3.org/2000/svg">
<path d="M23.0489 29.6726C23.5045 29.5903 23.9664 29.5488 24.4293 29.5486L24.0574 29.5468H36.4269C36.9634 29.5468 37.476 29.4733 37.9648 29.3379C40.2725 28.6989 41.9375 26.6528 41.9375 24.1358V13.7439C41.9375 10.7854 39.4177 8.56318 36.4226 8.07208C34.5246 7.75946 31.7454 7.61613 29.8593 7.62542C27.9734 7.63567 26.1682 7.7927 24.5841 8.07208C19.9135 8.88498 19.0625 10.5949 19.0625 13.7439V17.1562H30.5V19.0624H15.3477C11.103 19.0624 7.6586 24.1344 7.62583 30.4096C7.6256 30.4398 7.625 30.4698 7.625 30.4999C7.625 31.6345 7.73699 32.7303 7.94489 33.7649C8.89361 38.4907 11.8487 41.9375 15.3477 41.9375H17.1562V36.4647C17.1562 33.2685 19.5565 30.3012 23.0489 29.6726ZM24.2637 15.131C23.1209 15.131 22.1926 14.2035 22.1926 13.0576C22.1926 11.9063 23.1188 10.9703 24.2637 10.9703C25.4044 10.9703 26.3366 11.9061 26.3366 13.0576C26.3367 14.2035 25.4063 15.131 24.2637 15.131Z" fill="white"/>
<path d="M52.8926 26.5139C51.8 22.1627 48.9707 19.0625 45.6523 19.0625H43.8438V23.9082C43.8438 27.9488 41.1886 30.8748 37.9476 31.376C37.6204 31.4271 37.2898 31.4529 36.9586 31.453H24.5848C24.0602 31.4526 23.5377 31.5195 23.0301 31.6522C20.7519 32.2501 19.0625 34.1457 19.0625 36.6043V46.9966C19.0625 49.9551 22.0383 51.6938 24.9577 52.5427C28.4517 53.5591 32.2571 53.7422 36.4388 52.5427C39.2151 51.7492 41.9375 50.1455 41.9375 46.9966V43.8438H30.5V41.9375H45.6523C48.6594 41.9375 51.2647 39.3921 52.5403 35.6768C53.074 34.1224 53.375 32.3635 53.375 30.5C53.375 29.098 53.2043 27.7552 52.8926 26.5139ZM36.6795 45.6094C37.822 45.6094 38.7502 46.5369 38.7502 47.6825C38.7502 48.8322 37.822 49.7699 36.6795 49.7699C35.5385 49.7699 34.6065 48.8322 34.6065 47.6825C34.6065 46.5351 35.5366 45.6094 36.6795 45.6094Z" fill="white"/>
</svg>
