<svg width="61" height="61" viewBox="0 0 61 61" fill="none" xmlns="http://www.w3.org/2000/svg">
<path d="M30.5 25.0405C27.4856 25.0405 25.043 27.4831 25.043 30.4975C25.043 33.5119 27.4856 35.9544 30.5 35.9544C33.5144 35.9544 35.9569 33.5119 35.9569 30.4975C35.9569 27.4831 33.5144 25.0405 30.5 25.0405Z" fill="white"/>
<path d="M11.4731 40.1608C12.0094 40.3388 12.5457 40.5192 13.0947 40.6743C12.9167 41.3885 12.7617 42.0925 12.6168 42.8194C11.3663 49.4328 12.3423 54.6738 15.4635 56.4733C18.6813 58.3312 24.0899 56.425 29.3563 51.8144C29.7731 51.4458 30.1899 51.0646 30.6068 50.6579C31.1303 51.1713 31.6793 51.6593 32.2258 52.1346C37.3244 56.519 42.3645 58.2931 45.4755 56.4961C48.6933 54.6382 49.7404 49.0033 48.3832 42.1408C48.2764 41.6172 48.157 41.0809 48.0248 40.5319C48.406 40.4252 48.7746 40.3057 49.1457 40.1863C56.0209 37.9115 61 34.2286 61 30.4517C61 26.8425 56.3055 23.3401 49.8243 21.1111C49.1813 20.8976 48.5382 20.6917 47.8952 20.5011C48.0019 20.0613 48.0985 19.6191 48.1925 19.1794C49.6591 12.078 48.6933 6.37447 45.4399 4.49109C42.306 2.69159 37.1948 4.56226 32.025 9.06609C31.5116 9.5058 31.0134 9.97093 30.5356 10.4361C30.2128 10.126 29.8798 9.81588 29.5469 9.51851C24.1255 4.70459 18.694 2.67888 15.4406 4.57497C12.3195 6.38718 11.3892 11.7603 12.7007 18.4753C12.8329 19.1438 12.9752 19.797 13.1404 20.4655C12.3779 20.679 11.6281 20.9179 10.9241 21.1695C4.56229 23.3731 0 26.8527 0 30.4517C0 34.1701 4.85967 37.8962 11.4731 40.1608ZM27.6762 49.8675C25.7115 51.667 23.4342 53.0954 20.956 54.0739C19.6344 54.7043 18.1094 54.7653 16.7496 54.229C14.856 53.1335 14.0681 48.9271 15.1407 43.2668C15.2729 42.6008 15.4152 41.9324 15.5804 41.2766C18.2492 41.8485 20.9408 42.2425 23.6705 42.4433C25.2438 44.6723 26.9696 46.8048 28.8174 48.805C28.4362 49.1736 28.0549 49.532 27.6737 49.8649L27.6762 49.8675ZM42.8067 27.4957C42.2476 26.446 41.6757 25.3988 41.0784 24.3746C40.4938 23.363 39.8864 22.3616 39.256 21.3728C41.175 21.6118 43.0101 21.932 44.7257 22.326C44.1767 24.0899 43.5337 25.8055 42.8067 27.4957ZM42.8296 33.428C43.5921 35.1563 44.2606 36.9075 44.8426 38.707C42.9948 39.1238 41.1267 39.4466 39.2433 39.6601C39.8864 38.6587 40.4938 37.6344 41.0911 36.6101C41.6986 35.5604 42.2705 34.5006 42.8296 33.428ZM41.452 30.4644C40.654 32.1088 39.7949 33.7279 38.8799 35.3241C37.975 36.9075 37.0092 38.4452 35.9976 39.9702C34.2235 40.1024 32.3758 40.1608 30.5051 40.1608C28.6344 40.1608 26.8248 40.1024 25.0735 39.9931C24.0365 38.4808 23.0605 36.9304 22.143 35.3469C21.2255 33.7635 20.3791 32.1546 19.581 30.5101H19.5759C20.3613 28.8657 21.2204 27.2568 22.1252 25.6733C23.03 24.0899 24.0086 22.5522 25.0329 21.0399C26.8197 20.9077 28.642 20.8366 30.5025 20.8366C32.363 20.8366 34.1956 20.9077 35.9722 21.0399C36.9838 22.542 37.9496 24.0772 38.8672 25.6505C39.7847 27.2238 40.6413 28.8326 41.452 30.4644ZM19.9063 24.3974C19.3218 25.409 18.7499 26.4435 18.2136 27.4932C17.4638 25.7191 16.8309 23.9806 16.3073 22.3006C18.023 21.9193 19.8453 21.6092 21.7389 21.3703C21.1111 22.359 20.4909 23.3706 19.9063 24.3974ZM18.2161 33.522C18.7651 34.5717 19.3243 35.6087 19.919 36.633C20.5265 37.67 21.1467 38.707 21.8024 39.7186C19.9445 39.5153 18.0967 39.2179 16.2743 38.8239C16.7979 37.1083 17.4536 35.3342 18.2161 33.522ZM30.5966 46.97C29.3817 45.661 28.1668 44.2097 26.9874 42.6466C28.1312 42.6949 29.3105 42.7178 30.5025 42.7178C31.7302 42.7178 32.9324 42.6949 34.1244 42.6339C33.029 44.1462 31.8496 45.5898 30.5966 46.97ZM46.1694 50.5486C46.0601 51.9999 45.3459 53.3572 44.2021 54.2747C42.3086 55.3702 38.2699 53.9418 33.9084 50.2004C33.4077 49.7709 32.907 49.3058 32.3961 48.8305C34.2185 46.8175 35.8985 44.685 37.4235 42.4458C40.1507 42.2196 42.8678 41.8028 45.5492 41.1953C45.6687 41.6833 45.7754 42.1713 45.872 42.6491C46.4566 45.2238 46.5506 47.9028 46.1694 50.5486ZM47.2038 22.9563C47.824 23.1342 48.4188 23.3248 48.9906 23.5155C54.5416 25.4217 58.438 28.2582 58.438 30.4263C58.438 32.7621 54.2798 35.7765 48.3349 37.7412C48.0019 37.8479 47.669 37.9547 47.3233 38.0513C46.4896 35.4537 45.4653 32.9171 44.286 30.4491C45.4298 28.0193 46.3956 25.5158 47.2038 22.9563ZM33.7025 10.9952C38.1377 7.13697 42.2705 5.62468 44.1538 6.70743C46.1668 7.86388 46.942 12.5329 45.6788 18.6685C45.595 19.0726 45.5111 19.4666 45.4043 19.8606C42.7585 19.2658 40.0795 18.8363 37.3854 18.5973C35.8375 16.3785 34.1448 14.2587 32.3097 12.2686C32.7748 11.8289 33.2272 11.4121 33.7025 10.9952ZM30.5254 14.0935C31.7759 15.4508 32.9553 16.8792 34.0507 18.3559C31.692 18.2491 29.3207 18.2491 26.962 18.3559C28.1286 16.8207 29.3334 15.3923 30.5254 14.0935ZM16.7038 6.7913C18.7067 5.62468 23.1495 7.29201 27.8313 11.4375C28.1286 11.6993 28.426 11.9865 28.7361 12.2711C26.8883 14.2587 25.1854 16.3785 23.6248 18.5948C20.9332 18.8337 18.2644 19.2506 15.6185 19.8351C15.4635 19.2277 15.3339 18.6075 15.2017 17.9873C14.0808 12.2203 14.8205 7.87405 16.7038 6.7913ZM11.7603 23.5866C12.4389 23.3477 13.1303 23.1342 13.8216 22.9309C14.6324 25.5158 15.6084 28.0549 16.7394 30.5076C15.5957 32.9984 14.607 35.5706 13.786 38.1911L13.7835 38.1936C13.2828 38.0513 12.7948 37.8962 12.3068 37.7285C9.77017 36.9304 6.88538 35.6672 4.80121 34.0126C3.599 33.1789 2.78821 31.8928 2.562 30.4491C2.562 28.2684 6.32621 25.4802 11.7603 23.5866Z" fill="white"/>
</svg>
