<svg width="61" height="61" viewBox="0 0 61 61" fill="none" xmlns="http://www.w3.org/2000/svg">
<path d="M54.0104 15.4024L44.1055 15.3999V35.0902C44.1055 43.7674 43.6556 47.0716 42.2399 49.9208C40.8903 52.7065 38.7654 54.5212 34.3912 56.5927L43.5895 60.9999C47.9637 58.7989 50.086 56.7909 51.6949 53.6164C53.4309 50.3148 54.0104 46.4921 54.0104 38.5265V15.4024Z" fill="white"/>
<path d="M38.2496 46.1719V0H28.3447V15.2093C26.8655 14.8205 25.6429 14.6908 24.0366 14.6908C13.6793 14.6908 6.98962 21.2966 6.98962 31.4658C6.98962 42.0239 13.293 47.5292 25.3862 47.5292C29.4376 47.5317 33.1688 47.1428 38.2496 46.1719ZM17.0877 31.2727C17.0877 25.831 19.9801 22.7225 24.9999 22.7225H24.9897C25.0609 22.7174 25.1295 22.7174 25.1981 22.7174C26.3241 22.7174 27.4043 22.908 28.3422 23.2385V39.2357C26.929 39.4314 26.0267 39.495 24.9338 39.495C19.8555 39.4975 17.0877 36.5848 17.0877 31.2727Z" fill="white"/>
<path d="M54.0105 0.0534668H44.1056V10.2862H54.0105V0.0534668Z" fill="white"/>
</svg>
