<svg width="61" height="63" viewBox="0 0 61 63" fill="none" xmlns="http://www.w3.org/2000/svg">
<path d="M47.0209 24.9637C45.1148 24.2857 43.4323 23.0666 42.1663 21.4462C40.771 19.6408 38.9944 18.189 36.9724 17.2017C34.9504 16.2144 32.7364 15.7178 30.5 15.75C27.4916 15.5299 24.5134 16.4882 22.1583 18.434C19.8033 20.3799 18.2442 23.1704 17.7917 26.25C18.683 24.7097 20.0244 23.5012 21.623 22.7984C23.2216 22.0956 24.9948 21.9346 26.6875 22.3387C28.5905 23.0365 30.2702 24.2627 31.5421 25.8825C32.945 27.6734 34.725 29.1103 36.7466 30.0838C38.7682 31.0572 40.9782 31.5416 43.2084 31.5C46.2168 31.72 49.1951 30.7617 51.5501 28.8159C53.9052 26.8701 55.4642 24.0795 55.9167 21C55.0416 22.5586 53.7044 23.7854 52.1026 24.4991C50.5008 25.2128 48.7192 25.3757 47.0209 24.9637ZM13.9792 38.0362C15.8853 38.7142 17.5678 39.9333 18.8338 41.5537C20.229 43.3591 22.0056 44.811 24.0277 45.7983C26.0497 46.7856 28.2636 47.2821 30.5 47.25C33.5084 47.47 36.4867 46.5117 38.8418 44.5659C41.1968 42.6201 42.7558 39.8295 43.2084 36.75C42.3171 38.2902 40.9756 39.4987 39.3771 40.2015C37.7785 40.9044 36.0053 41.0653 34.3125 40.6612C32.4096 39.9635 30.7299 38.7373 29.458 37.1175C28.0513 35.3309 26.2706 33.8972 24.2498 32.9242C22.2291 31.9512 20.021 31.4642 17.7917 31.5C14.7833 31.2799 11.805 32.2382 9.44997 34.184C7.09492 36.1299 5.5359 38.9204 5.08337 42C5.95849 40.4413 7.29566 39.2146 8.89748 38.5008C10.4993 37.7871 12.2809 37.6242 13.9792 38.0362Z" fill="white"/>
</svg>
