<svg width="28" height="28" viewBox="0 0 28 28" fill="none" xmlns="http://www.w3.org/2000/svg">
<path d="M26.4444 0H1.55556C0.696446 0 0 0.696446 0 1.55556V26.4444C0 27.3036 0.696446 28 1.55556 28H26.4444C27.3036 28 28 27.3036 28 26.4444V1.55556C28 0.696446 27.3036 0 26.4444 0Z" fill="#0A0A0A"/>
<path fill-rule="evenodd" clip-rule="evenodd" d="M1.55556 0C0.696111 0 0 0.699222 0 1.55556V26.4444C0 27.3039 0.694167 28 1.55556 28H9.33333C10.1111 28 10.5307 26.8956 10.5307 26.5269C10.5307 26.194 10.5179 25.0946 10.5117 23.9287C6.61694 24.7726 5.79483 22.2822 5.79483 22.2822C5.15822 20.6691 4.24044 20.2401 4.24044 20.2401C2.97033 19.3741 4.33611 19.3916 4.33611 19.3916C5.74194 19.4899 6.48239 20.8297 6.48239 20.8297C7.73072 22.9635 9.75761 22.3463 10.5564 21.9901C10.682 21.0879 11.0448 20.4723 11.4454 20.1234C8.33583 19.7707 5.06683 18.5741 5.06683 13.2269C5.06683 11.7032 5.61361 10.458 6.50961 9.48072C6.36378 9.12956 5.88467 7.71011 6.64494 5.78783C6.64494 5.78783 7.82056 5.41256 10.4957 7.21817C11.6126 6.909 12.8104 6.75383 14 6.74878C15.19 6.75383 16.3886 6.909 17.5074 7.21817C20.1794 5.41256 21.3535 5.78783 21.3535 5.78783C22.1157 7.71011 21.6362 9.12956 21.4908 9.48072C22.3883 10.4584 22.9316 11.7032 22.9316 13.2269C22.9316 18.5869 19.6564 19.7672 16.5391 20.1126C17.0411 20.5458 17.4887 21.3951 17.4887 22.6971C17.4887 24.5646 17.4724 26.0672 17.4724 26.5269C17.4724 26.8983 17.4724 28 18.6667 28H26.4437C26.8562 27.9997 27.2518 27.8357 27.5435 27.5441C27.8353 27.2525 27.9995 26.857 28 26.4444V1.55556C28 0.696111 27.3008 0 26.4444 0H1.55556ZM5.3025 20.0375C5.27139 20.1067 5.1625 20.1273 5.06256 20.0799C4.96106 20.0344 4.90389 19.9399 4.93694 19.8703C4.96728 19.7987 5.07694 19.7789 5.17806 19.8267C5.27994 19.8722 5.3375 19.9679 5.3025 20.0375ZM5.8695 20.6675C5.803 20.7297 5.67233 20.7009 5.58367 20.6033C5.49228 20.5061 5.47478 20.3758 5.54283 20.3132C5.61167 20.2514 5.73806 20.2806 5.82983 20.3778C5.92161 20.4762 5.9395 20.6049 5.8695 20.6675ZM6.42172 21.4717C6.33617 21.5308 6.19578 21.4756 6.10906 21.3512C6.02311 21.2267 6.02311 21.0782 6.11061 21.0187C6.19772 20.9592 6.33617 21.0124 6.42367 21.1357C6.50922 21.2621 6.50922 21.4107 6.42172 21.4717ZM7.17772 22.2479C7.10111 22.3323 6.93778 22.3098 6.818 22.1947C6.6955 22.0819 6.66167 21.9224 6.73867 21.8381C6.81644 21.7537 6.98056 21.7774 7.10111 21.8913C7.22244 22.0041 7.25978 22.1647 7.17772 22.2479ZM8.22111 22.6991C8.18728 22.8079 8.02978 22.8581 7.87111 22.8118C7.71283 22.7636 7.60939 22.6357 7.64167 22.5252C7.67433 22.4152 7.83222 22.3634 7.99206 22.4132C8.15033 22.4607 8.25417 22.5878 8.2215 22.6991H8.22111ZM9.36678 22.7827C9.37067 22.8978 9.2365 22.9931 9.07006 22.9954C8.90283 22.9989 8.76711 22.9059 8.76517 22.7924C8.76517 22.6761 8.89661 22.5816 9.06422 22.5789C9.23067 22.5758 9.36678 22.6683 9.36678 22.7827ZM10.4331 22.6018C10.4529 22.7138 10.3374 22.8293 10.1722 22.8601C10.0096 22.8896 9.85911 22.8204 9.8385 22.7088C9.81828 22.5937 9.93572 22.4786 10.0983 22.4486C10.2639 22.4198 10.4125 22.4875 10.4331 22.6018Z" fill="#B8B8B8"/>
</svg>
