<svg width="28" height="28" viewBox="0 0 28 28" fill="none" xmlns="http://www.w3.org/2000/svg">
<path d="M26.4444 0H1.55556C0.696446 0 0 0.696446 0 1.55556V26.4444C0 27.3036 0.696446 28 1.55556 28H26.4444C27.3036 28 28 27.3036 28 26.4444V1.55556C28 0.696446 27.3036 0 26.4444 0Z" fill="#B8B8B8"/>
<path fill-rule="evenodd" clip-rule="evenodd" d="M5.10961 10.8298H8.85189V22.8706H5.10961V10.8298ZM6.98133 4.84438C8.17794 4.84438 9.15017 5.81661 9.15017 7.01322C9.15017 8.21099 8.17794 9.18361 6.98133 9.18361C6.69296 9.18907 6.40639 9.13698 6.13838 9.0304C5.87037 8.92382 5.62629 8.76488 5.42042 8.56287C5.21455 8.36086 5.05102 8.11984 4.93939 7.8539C4.82775 7.58795 4.77025 7.30242 4.77025 7.01399C4.77025 6.72557 4.82775 6.44004 4.93939 6.17409C5.05102 5.90815 5.21455 5.66712 5.42042 5.46512C5.62629 5.26311 5.87037 5.10417 6.13838 4.99759C6.40639 4.89101 6.69296 4.83892 6.98133 4.84438ZM11.1992 10.8294H14.7887V12.4748H14.8384C15.3382 11.5282 16.5589 10.5303 18.3793 10.5303C22.1686 10.5303 22.8686 13.0243 22.8686 16.2664V22.8706H19.1287V17.015C19.1287 15.6189 19.103 13.8227 17.1842 13.8227C15.2371 13.8227 14.938 15.3436 14.938 16.9143V22.8706H11.1988V10.8298L11.1992 10.8294Z" fill="#0A0A0A"/>
</svg>
